<?xml version="1.0" encoding="UTF-8"?>
<svg width="500px" height="500px" viewBox="0 0 500 500" version="1.1" xmlns="http://www.w3.org/2000/svg" xmlns:xlink="http://www.w3.org/1999/xlink">
    <title>Concordium logo black@1x</title>
    <g id="Concordium-logo-black" stroke="none" stroke-width="1" fill="none" fill-rule="evenodd">
        <g id="Group" transform="translate(30, 120)" fill="#0B2434" fill-rule="nonzero">
            <path d="M297.48845,121.923981 L267.169964,121.923981 C274.878054,111.865157 279.502908,99.3124108 279.502908,85.6457121 C279.502908,71.9790133 274.861477,59.3763884 267.136811,49.3175652 L297.471874,49.3175652 C302.6106,60.3407054 305.494917,72.6606856 305.494917,85.6457121 C305.494917,98.6307385 302.6106,110.917466 297.48845,121.923981 Z M219.874145,121.923981 C199.829838,121.923981 183.570937,105.663602 183.570937,85.6290859 C183.570937,65.5945701 199.829838,49.3175652 219.874145,49.3175652 C239.918451,49.3175652 256.177352,65.577944 256.177352,85.6290859 C256.177352,105.680228 239.935127,121.923981 219.874145,121.923981 Z M160.875338,85.6290799 C160.875338,118.491773 187.34234,145.124178 220.003747,145.124178 C228.765351,145.124178 237.046641,143.1471 244.532927,139.707981 L244.532927,167.619672 C236.765077,169.96226 228.550038,171.241546 220.020309,171.241546 C173.032271,171.241546 134.938338,132.912813 134.938338,85.6290799 C134.938338,38.3453466 173.015708,0 220.003747,0 C228.533475,0 236.748515,1.27928583 244.516365,3.62187416 L244.516365,31.5335649 C237.030079,28.0944459 228.748789,26.1173678 219.987184,26.1173678 C187.34234,26.1173678 160.858775,52.7497727 160.858775,85.6124658 L160.875338,85.6290799 Z" id="Shape"></path>
            <path d="M23.3371502,248.890875 C27.6398113,248.890875 31.1363532,247.147642 33.2322631,244.880432 L33.2322631,257.506273 C30.2093162,258.906905 26.6523153,259.602183 23.1053909,259.602183 C10.308249,259.602183 0,249.414852 0,236.970387 C0,224.525923 10.2981725,214.338591 23.1053909,214.338591 C26.6523153,214.338591 30.2093162,215.094328 33.2322631,216.434501 L33.2322631,229.060343 C31.1363532,226.793133 27.6498878,225.0499 23.3371502,225.0499 C16.4146017,225.0499 11.4065864,230.108298 11.4065864,236.980464 C11.4065864,243.85263 16.4146017,248.911028 23.3371502,248.911028 L23.3371502,248.890875 Z M62.1417121,214.328515 C74.7675537,214.328515 84.8339669,224.515846 84.8339669,236.960311 C84.8339669,249.404776 74.7675537,259.592107 62.1417121,259.592107 C49.5158705,259.592107 39.4494572,249.404776 39.4494572,236.960311 C39.4494572,224.515846 49.5763294,214.328515 62.1417121,214.328515 Z M62.1417121,224.918906 C55.9144414,224.918906 50.8560436,229.866462 50.8560436,236.960311 C50.8560436,244.05416 55.9144414,249.001716 62.1417121,249.001716 C68.3689827,249.001716 73.4273806,244.05416 73.4273806,236.960311 C73.4273806,229.866462 68.3689827,224.918906 62.1417121,224.918906 L62.1417121,224.918906 Z M103.223561,215.023793 L121.844914,240.628153 L121.844914,215.023793 L132.787981,215.023793 L132.787981,258.896829 L123.074245,258.896829 L103.818074,232.889409 L103.818074,258.896829 L92.8750057,258.896829 L92.8750057,215.023793 L103.233637,215.023793 L103.223561,215.023793 Z M164.146017,248.890875 C168.448679,248.890875 171.945221,247.147642 174.04113,244.880432 L174.04113,257.506273 C171.018183,258.906905 167.461183,259.602183 163.914258,259.602183 C151.117116,259.602183 140.808867,249.414852 140.808867,236.970387 C140.808867,224.525923 151.10704,214.338591 163.914258,214.338591 C167.461183,214.338591 171.018183,215.094328 174.04113,216.434501 L174.04113,229.060343 C171.945221,226.793133 168.458755,225.0499 164.146017,225.0499 C157.223469,225.0499 152.215454,230.108298 152.215454,236.980464 C152.215454,243.85263 157.223469,248.911028 164.146017,248.911028 L164.146017,248.890875 Z M202.950579,214.328515 C215.576421,214.328515 225.642834,224.515846 225.642834,236.960311 C225.642834,249.404776 215.576421,259.592107 202.950579,259.592107 C190.324738,259.592107 180.258325,249.404776 180.258325,236.960311 C180.258325,224.515846 190.385197,214.328515 202.950579,214.328515 Z M202.950579,224.918906 C196.723309,224.918906 191.664911,229.866462 191.664911,236.960311 C191.664911,244.05416 196.723309,249.001716 202.950579,249.001716 C209.17785,249.001716 214.236248,244.05416 214.236248,236.960311 C214.236248,229.866462 209.17785,224.918906 202.950579,224.918906 L202.950579,224.918906 Z M244.959465,243.187581 L244.959465,258.896829 L233.673797,258.896829 L233.673797,215.023793 L248.163789,215.023793 C258.582879,215.023793 265.737187,220.14265 265.737187,229.110725 C265.737187,234.985319 262.190262,239.298056 256.718729,241.504808 L270.684743,258.906905 L256.950488,258.906905 L244.959465,243.197658 L244.959465,243.187581 Z M244.959465,234.693101 L248.10333,234.693101 C251.882013,234.693101 254.1593,232.65765 254.1593,229.453326 C254.1593,226.249002 251.89209,224.27401 248.10333,224.27401 L244.959465,224.27401 L244.959465,234.693101 L244.959465,234.693101 Z M291.623689,215.023793 C304.189072,215.023793 314.315944,224.445311 314.315944,236.960311 C314.315944,249.475311 304.189072,258.896829 291.623689,258.896829 L275.743141,258.896829 L275.743141,215.023793 L291.623689,215.023793 Z M290.867952,224.394928 L287.139651,224.394928 L287.139651,249.53577 L290.747034,249.53577 C298.133101,249.53577 302.909357,243.721635 302.909357,236.970387 C302.909357,230.219139 298.133101,224.405005 290.867952,224.405005 L290.867952,224.394928 Z M333.753492,258.896829 L322.346906,258.896829 L322.346906,215.023793 L333.753492,215.023793 L333.753492,258.896829 Z M368.900289,241.262972 L368.900289,215.023793 L380.306875,215.023793 L380.306875,241.21259 C380.306875,252.911394 372.336372,259.602183 361.856822,259.602183 C351.377273,259.602183 343.40677,252.911394 343.40677,241.21259 L343.40677,215.023793 L354.813356,215.023793 L354.813356,241.262972 C354.813356,246.794965 357.604544,249.525694 361.856822,249.525694 C366.109101,249.525694 368.900289,246.794965 368.900289,241.262972 Z M401.114826,229.574244 L400.782302,229.574244 L400.782302,258.896829 L390.2826,258.896829 L390.2826,215.023793 L407.019649,215.023793 L415.3126,239.932875 L424.472129,215.023793 L440,215.023793 L440,258.896829 L429.490221,258.896829 L429.490221,229.574244 L429.167774,229.574244 L418.577383,258.896829 L411.69514,258.896829 L401.114826,229.574244 L401.114826,229.574244 Z" id="Shape"></path>
        </g>
    </g>
</svg>