<svg xmlns="http://www.w3.org/2000/svg" width="400" height="347" viewBox="0 0 400 347">
  <defs>
    <style>
      .cls-1 {
      fill-rule: evenodd;
      }
    </style>
  </defs>
  <path id="Color_Fill_1" data-name="Color Fill 1" class="cls-1"
        d="M126,6c2.762,0.723,2.237.279,3,3h2l1,3,2,1,1,3c1.822,2.546,3.89,1.7,5,6h2c0.871,3.428,2.068,2.575,3,6h2l1,3,3,2v2l2,1v1l2,1v2h2v2c2.7,1.659,2.565,3.995,6,5v3h2l1,3,5,4v2h2c0.871,3.428,2.068,2.575,3,6h2l1,3,3,2v2l4,3v2l5,4,1,3h2v3h2l1,3,4,3v2l6,5v2l6,5v2l3,2v2h1c1.433,1.74,2.308,2.411,3,5h2c0.871,3.428,2.068,2.575,3,6h2q0.5,1.5,1,3l4,3v2l2,1,3,4h1v2h1a7.812,7.812,0,0,1,2,4h2q0.5,1.5,1,3l3,2v2l2,1v1l2,1v2h2c0.871,3.428,2.068,2.575,3,6h2l1,3,3,2v2l4,3,1,3h2c0.871,3.428,2.068,2.575,3,6h2v2c3.408,1.958,6.312,6.356,8,10,1.135-.844.145,0.127,1-1,1.591-1.827,1-6.63,1-10V53h-3l-5,6h-2l-1,2-4,3v1h-2v1c-1.734,1.432-2.413,2.314-5,3v2c-2.762.723-2.237,0.279-3,3h-3c-0.723,2.762-.279,2.237-3,3v2h-2l-4,5-3,1v2c-3.428.871-2.575,2.068-6,3v2l-3,1-2,3h-2l-1,2h-5c-1.127-1.719-.633-1.355-3-2V87l2-1a11.66,11.66,0,0,0,2-5h2c0.362-3.03.643-3.224,2-5h1q0.5-2,1-4l3-2V68l2-1q0.5-2,1-4l3-2V59l2-1q0.5-2,1-4l2-1,1-3,3-2q0.5-2,1-4l2-1V41l3-2q0.5-2,1-4l2-1V32l3-2q0.5-2,1-4l3-2V22l2-1q0.5-2,1-4l2-1,1-3,3-2V9l6-5V3h3l1-2h2V0h19V1h2l1,2h3V4l6,5v2l3,2c1.862,3.408,1,12.849,1,18V218c0,4.294.546,11.192-1,14l-3,2v2l-6,5v1h-3v1c-1.291.913-1.942,0.754-3,2H282v-1l-6-2v-1a8.373,8.373,0,0,0-4-2c-1.006-3.858-2.93-3.142-4-7h-2v-2l-6-5v-2l-4-3q-0.5-1.5-1-3h-2v-3h-2q-0.5-1.5-1-3l-5-4v-2l-4-3v-2l-3-2q-0.5-1.5-1-3h-2c-0.871-3.428-2.068-2.575-3-6h-2q-0.5-1.5-1-3l-2-1v-1l-2-1v-2h-1a7.717,7.717,0,0,1-2-4h-2v-1a20.9,20.9,0,0,1-3-4h-1v-2h-2v-2c-4.262-2.573-5.437-8.66-10-10-0.871-3.428-2.068-2.575-3-6h-2v-2c-4.361-2.629-6.313-9.623-11-11v-3c-4.06-1.23-1.227-.68-3-3l-5-4v-2l-4-3q-0.5-1.5-1-3h-2v-3c-2.762-.723-2.237-0.279-3-3h-2v-2l-4-3v-2l-2-1v-1l-2-1v-2h-1a7.831,7.831,0,0,1-2-4c-4.06-1.23-1.227-.68-3-3l-5-4V90l-4-3-1-3h-2V81h-2l-1-3-5-4V72l-2-1-2-3h-1V66h-1a7.814,7.814,0,0,1-2-4h-2l-1-3-2-1-3-5c-1.139,1.139-.4,0-1,2-1.591,1.827-1,6.63-1,10V192c4.827-.564,2.94-1.879,7-3v-2l3-1,4-5h2l4-5h2v-1c2.264-1.9,3.731-4.135,7-5v-2l3-1,5-6h2l5-6h1c1.19-.764.064,0.061,1-1h1v-2h3c1.025-4.045.444-1.267,3-3q0.5-1,1-2h5c1.837,2.736,1.774.877,3,2,1.475,1.351,1.029,5.2,1,8-2.976,1.774-3.228,3.976-5,7h-1v2l-2,1q-0.5,1.5-1,3h-1q-0.5,1.5-1,3h-2c-0.359,3.03-.645,3.224-2,5h-1q-0.5,2-1,4l-2,1v2l-3,2q-0.5,2-1,4l-2,1v2l-3,2v2l-2,1q-0.5,2-1,4l-3,2v2l-2,1q-0.5,2-1,4l-3,2q-0.5,1.5-1,3h-1v2l-2,1v2l-3,2q-0.5,2-1,4l-2,1v2l-2,1q-0.5,1.5-1,3h-1a8.211,8.211,0,0,0-2,4,8.46,8.46,0,0,0-4,2v1l-6,2v1H94v-1c-4.4-1.106-7.447-3.973-10-7H83v-2l-3-2v-3l-2-1V16c2.7-1.842,2.208-4.454,4-7l2-1,3-4h2V3h2l1-2h2V0h25l1,2h2V3C125.322,4.665,124.657,1.438,126,6ZM78,285H89c1.439,2.465,3.138,2.788,4,6h2c0.37,3.031.643,3.219,2,5h1v2h1v2h1c0.914,1.379.684,1.755,1,4h2c1.381,6.431,7.035,8.074,8,15h2c0.819,4.1,3.357,6.49,5,10h1V317c-1.5-1.686-1-5.819-1-9V285h11v62a75,75,0,0,1-14-1c-0.823-1.876-1.481-2.616-2-5h-2c-0.367-3.073-.681-3.161-2-5h-1v-3l-3-2v-2l-2-1v-2l-2-1v-2l-2-1-1-4H97c-1.38-1.8-1.553-1.974-2-5H93c-0.8-3.986-3.022-5.338-4-9H88v15c2.2,2.457,1.084,22.651,1,28H78V285Zm110,0v11c-14.021.182-30.411,1.377-40-3q-0.5-3.5-1-7C154.822,283.121,177.507,284.953,188,285Zm37,0h15c0.844,1.135-.127.145,1,1a16.79,16.79,0,0,0,2,8h1q0.5,3,1,6h1v2h1v4l2,1q1,4.5,2,9l2,1v4h1q0.5,2,1,4h1v4h1l1,4h1v4h1a30.027,30.027,0,0,1,3,10H251c-0.844-1.135.127-.145-1-1a16.741,16.741,0,0,0-2-8h-1q-0.5-3-1-6h-1v-2h-1v-4h-1q-0.5-2-1-4h-1v-4h-1q-0.5-2-1-4h-1v-4h-1q-0.5-2-1-4h-1v-4h-1q-0.5-2-1-4c-1.139,1.139-.4,0-1,2h-1q-0.5,3.5-1,7h-1v2h-1v4l-2,1v2h-1v4h-1v2h-1v3h-1q-0.5,3-1,6l-2,1v4h-1v2h-1q-1,4.5-2,9H203q0.5-4,1-8l2-1v-3h1q0.5-3,1-6l2-1v-4h1v-2h1q0.5-3,1-6h1q0.5-2,1-4h1v-4h1q0.5-2,1-4h1q0.5-3,1-6h1v-2h1v-4l2-1Q224.5,288,225,285Zm84,43h2l1,4h2c1.017,3.973,3.913,4.915,5,9h2q0.5,3,1,6H310l-1-3h-2l-1-3-3-2v-2h-1a12.461,12.461,0,0,1-3-6h-2c-0.871-3.428-2.068-2.575-3-6h-9v22H274V316c6.528-2.416,18.694-1.052,27-1v-1l5-1,1-2,2-1c1.576-2.846.231-6.452,0-10-2.731-1.584-2.446-2.742-7-3-2.27-2.045-18.217-1.087-23-1-1.973-3-2.825-.941-4-5h-1v-5c7.241-2.673,23.642-1.05,33-1,1.508,1.744,4.292,2.5,7,3l3,4h1v2l2,1c1.22,2.352,1.844,15.946,0,18-0.952,3.828-3.288,5.93-6,8v1h-3v1c-2.122,1.086-2.426.229-4,2C308.719,326.127,308.355,325.633,309,328Zm-123-7H159c-1.335,3.57-1.048,9.913-1,15,7.283,2.692,20.878,1.053,30,1v10H147V311c7.366-2.714,28.109-1.047,38-1C186,312.652,186.041,316.944,186,321Z"/>
</svg>
