<?xml version="1.0" encoding="UTF-8"?>
<!DOCTYPE svg PUBLIC "-//W3C//DTD SVG 1.1//EN" "http://www.w3.org/Graphics/SVG/1.1/DTD/svg11.dtd">
<!-- Creator: CorelDRAW X7 -->
<svg xmlns="http://www.w3.org/2000/svg" xml:space="preserve" width="2.23233in" height="1.85533in" version="1.1"
     style="shape-rendering:geometricPrecision; text-rendering:geometricPrecision; image-rendering:optimizeQuality; fill-rule:evenodd; clip-rule:evenodd"
     viewBox="0 0 2735 2273"
     xmlns:xlink="http://www.w3.org/1999/xlink">
 <defs>
  <style type="text/css">
   <![CDATA[
    .fil0 {fill:#212121;fill-rule:nonzero}
    .fil1 {fill:#8247E5;fill-rule:nonzero}
   ]]>
  </style>
 </defs>
 <g id="Layer_x0020_1">
  <metadata id="CorelCorpID_0Corel-Layer"/>
  <g id="_1607374304848">
   <path class="fil0"
         d="M262 2003c19,-16 28,-38 28,-66 0,-27 -9,-50 -26,-68 -17,-18 -39,-26 -64,-26 -20,0 -39,4 -54,13 -15,8 -26,20 -36,37l0 83c6,16 17,29 30,38 15,9 32,15 53,15 28,0 50,-9 69,-26zm2440 -222c22,18 31,42 33,71l0 252 -110 0 0 -211c-2,-33 -19,-50 -51,-50 -24,0 -45,11 -59,35 -15,24 -23,54 -23,88l0 138 -108 0 0 -334 99 0 7 53c13,-22 30,-39 53,-51 22,-13 48,-19 78,-19 32,0 60,9 81,28zm-638 219c15,18 35,25 59,25 25,0 45,-9 60,-25 15,-17 23,-41 23,-67 0,-27 -8,-49 -23,-66 -15,-16 -35,-25 -60,-25 -24,0 -43,9 -59,25 -17,17 -25,41 -25,66 2,26 10,48 25,67zm-109 -160c17,-28 39,-48 69,-65 30,-14 64,-24 101,-24 38,0 71,8 101,24 28,15 51,37 68,65 15,27 24,57 24,92 0,34 -7,64 -24,91 -15,28 -38,50 -68,65 -28,14 -63,24 -101,24 -37,0 -71,-8 -101,-22 -30,-15 -52,-35 -69,-63 -17,-27 -24,-59 -24,-97 0,-32 7,-63 24,-90zm-200 136l0 -83c-8,-17 -19,-29 -36,-39 -16,-9 -35,-14 -58,-14 -26,0 -48,9 -67,25 -19,17 -28,39 -28,67 0,25 9,49 28,68 19,18 41,27 67,27 43,-2 75,-18 94,-51zm110 -206l0 334c0,32 -9,61 -28,87 -18,25 -43,46 -75,60 -31,15 -65,22 -103,22 -28,0 -52,-3 -72,-9 -21,-7 -38,-15 -51,-22 -15,-9 -30,-20 -47,-35l64 -73c15,14 32,25 47,33 15,7 35,13 58,13 28,0 50,-8 69,-21 19,-12 28,-33 28,-57l0 -47c-11,16 -26,31 -49,42 -22,11 -48,16 -78,16 -30,0 -60,-7 -86,-23 -27,-15 -47,-37 -64,-65 -15,-27 -24,-57 -24,-90 0,-33 7,-64 24,-92 17,-27 37,-49 65,-66 27,-16 55,-24 85,-24 28,0 52,4 75,11 22,8 39,19 50,32l11 -26 101 0zm-415 0l-221 496 -105 0 83 -178 -157 -318 123 0 90 198 90 -198 97 0zm-445 334l-109 0 0 -604 109 0 0 604zm-429 -104c15,18 36,25 60,25 24,0 45,-9 60,-25 15,-17 22,-41 22,-67 0,-27 -7,-49 -22,-66 -17,-18 -36,-27 -62,-27 -24,0 -43,9 -60,25 -15,19 -22,41 -22,68 0,26 7,48 24,67zm-110 -160c17,-26 39,-48 69,-63 30,-15 64,-24 101,-24 38,0 71,8 101,24 28,15 51,37 67,64 17,28 25,57 25,92 0,35 -8,65 -25,92 -16,28 -37,50 -67,65 -28,14 -63,23 -101,23 -37,0 -71,-7 -101,-22 -30,-14 -52,-35 -69,-62 -15,-28 -24,-59 -24,-96 0,-35 9,-66 24,-93zm-144 -65c24,15 45,35 58,63 15,27 22,60 22,97 0,37 -7,68 -24,96 -15,27 -37,48 -66,60 -28,15 -61,22 -97,22 -20,0 -39,-3 -58,-11 -19,-5 -35,-16 -48,-29l0 191 -109 0 0 -503 94 0 9 40c41,-33 86,-50 133,-50 32,0 61,8 86,24z"/>
   <path class="fil1"
         d="M1815 460c-33,-19 -75,-19 -110,0l-253 146 -172 96 -253 146c-32,19 -74,19 -110,0l-201 -114c-32,-19 -55,-54 -55,-93l0 -226c0,-38 20,-73 55,-92l198 -111c32,-19 75,-19 110,0l198 111c32,19 55,54 55,92l0 147 172 -99 0 -146c0,-39 -20,-74 -55,-93l-367 -210c-32,-19 -74,-19 -110,0l-372 210c-36,19 -55,54 -55,93l0 423c0,38 19,73 55,92l372 210c33,19 75,19 110,0l253 -143 172 -99 253 -143c32,-19 74,-19 110,0l197 112c33,19 56,54 56,92l0 226c0,38 -20,73 -56,92l-197 115c-33,19 -75,19 -110,0l-198 -112c-32,-19 -55,-54 -55,-92l0 -146 -172 98 0 147c0,38 20,73 55,92l373 210c32,19 74,19 110,0l373 -210c32,-19 55,-54 55,-92l0 -424c0,-38 -20,-73 -55,-92l-376 -213z"/>
  </g>
 </g>
</svg>
